Roué is geboren in 1972 in Suriname. In 1998 bezoekt FreshWagon (met o.a.Najib Amhali en Eric van Sauers) Paramaribo om workshops te geven. Daar komen zij in aanraking met Roué, die (na enige aarzeling) zijn kunsten vertoond in een door hen georganiseerde talentenjacht. En FreshWagon raakt diep onder de indruk van Roué. In 1999 besluit Roué de stap naar Nederland te wagen om daar een carrière als Stand Up Comedian te beginnen. Hij wordt door zowel FreshWagon als door Comedytrain (zonder auditie te doen!) aangenomen. Vanaf die tijd gaat het snel. Zijn eerste show Uit het Niets presenteert hij op de Uitmarkt in Amsterdam in 2002 en in het seizoen 2003 & 2004 komt hij met zijn eerste avondvullende programma Eigen Vermogen. Voor TV en DVD heeft hij van zijn shows Uit het Niets en Eigen Vermogen een spetterende compilatie gemaakt. Dit is R.I.P. geworden. Roué In Panama.

General
Format                           : AVI
Format/Info                      : Audio Video Interleave
File size                        : 514 MiB
Duration                         : 50mn 19s
Overall bit rate                 : 1 429 Kbps

Video
ID                               : 0
Format                           : MPEG-4 Visual
Format profile                   : Simple@L3
Format settings, BVOP            : No
Format settings, QPel            : No
Format settings, GMC             : No warppoints
Format settings, Matrix          : Default (H.263)
Codec ID                         : XVID
Codec ID/Hint                    : XviD
Duration                         : 50mn 19s
Bit rate                         : 1 199 Kbps
Width                            : 672 pixels
Height                           : 368 pixels
Display aspect ratio             : 16:9
Frame rate                       : 30.000 fps
Color space                      : YUV
Chroma subsampling               : 4:2:0
Bit depth                        : 8 bits
Scan type                        : Progressive
Bits/(Pixel*Frame)               : 0.162
Stream size                      : 432 MiB (84%)
Writing library                  : XviD 1.1.2 (UTC 2006-11-01)

Audio
ID                               : 1
Format                           : AC-3
Format/Info                      : Audio Coding 3
Mode extension                   : CM (complete main)
Codec ID                         : 2000
Duration                         : 50mn 19s
Bit rate mode                    : Constant
Bit rate                         : 224 Kbps
Channel(s)                       : 2 channels
Channel positions                : Front: L R
Sampling rate                    : 48.0 KHz
Bit depth                        : 16 bits
Stream size                      : 80.6 MiB (16%)
Alignment                        : Split accross interleaves
Interleave, duration             : 500 ms (15.00 video frames)
Interleave, preload duration     : 500 ms

Leave your comment about Audio/Video/Movie